<svg xmlns="http://www.w3.org/2000/svg" xmlns:xlink="http://www.w3.org/1999/xlink" width="1080" zoomAndPan="magnify" viewBox="0 0 810 809.999993" height="1080" preserveAspectRatio="xMidYMid meet" version="1.0"><defs><clipPath id="6cef3558fc"><path d="M 53 32.894531 L 757 32.894531 L 757 776.894531 L 53 776.894531 Z M 53 32.894531 " clip-rule="nonzero"/></clipPath></defs><g clip-path="url(#6cef3558fc)"><path fill="currentColor" d="M 412.082031 67.265625 C 429.273438 67.265625 453.1875 77.878906 464.648438 82.386719 C 585.289062 129.742188 706.007812 241.175781 719.988281 364.988281 C 721.746094 380.71875 727.78125 408.675781 703.332031 408.75 C 634.035156 398.59375 564.507812 387.824219 499.488281 362.160156 L 532.339844 382.554688 C 580.933594 405.621094 635.179688 410.507812 687.210938 422.347656 C 687.667969 422.421875 687.824219 423.1875 687.363281 423.414062 C 665.816406 434.796875 636.859375 440.21875 612.03125 442.738281 C 598.199219 444.113281 584.21875 444.953125 570.238281 444.953125 C 530.964844 444.953125 492 438.386719 457.160156 419.292969 C 460.597656 473.519531 529.054688 462.519531 561.605469 490.476562 C 576.121094 502.925781 588.957031 532.253906 580.398438 548.90625 C 577.265625 554.9375 574.667969 557.308594 572.453125 557.308594 C 564.8125 557.308594 561.527344 529.964844 558.546875 525.226562 C 556.714844 522.25 543.648438 509.417969 539.753906 509.417969 C 539.523438 509.417969 539.292969 509.417969 539.140625 509.570312 C 552.054688 519.957031 557.628906 564.714844 537.917969 566.777344 C 537.382812 566.777344 536.847656 566.855469 536.390625 566.855469 C 527.222656 566.855469 530.429688 556.464844 528.292969 550.738281 C 506.898438 493.761719 413.535156 494.753906 387.9375 447.246094 C 379.382812 431.359375 376.628906 409.820312 380.679688 392.863281 C 357.988281 406.765625 366.46875 433.191406 369.296875 454.273438 C 340.261719 441.671875 323.683594 402.257812 289.757812 398.363281 C 287.773438 398.132812 285.710938 397.980469 283.570312 397.980469 C 257.363281 397.980469 226.648438 415.625 214.425781 435.253906 C 232 424.484375 255.453125 415.777344 277.078125 415.777344 C 297.550781 415.777344 316.425781 423.570312 327.121094 444.878906 C 347.671875 485.585938 310.542969 497.425781 287.847656 519.730469 C 278.757812 528.664062 268.902344 551.808594 257.898438 551.808594 C 257.515625 551.808594 257.210938 551.808594 256.828125 551.808594 C 241.625 549.746094 247.277344 528.816406 248.5 518.886719 L 232.152344 539.664062 C 201.4375 614.972656 272.1875 690.511719 355.007812 690.511719 C 360.28125 690.511719 365.550781 690.203125 370.824219 689.59375 C 463.425781 678.746094 459.300781 556.621094 383.582031 556.621094 C 379.6875 556.621094 375.5625 556.925781 371.28125 557.613281 C 324.21875 565.097656 326.203125 619.707031 370.058594 619.707031 C 370.136719 619.707031 370.210938 619.707031 370.367188 619.707031 C 392.90625 619.554688 393.058594 598.472656 395.195312 597.023438 C 395.65625 596.71875 396.34375 596.566406 397.03125 596.566406 C 401.003906 596.566406 407.957031 600.535156 409.714844 604.433594 C 421.554688 631.089844 391.300781 657.820312 362.648438 657.820312 C 362.496094 657.820312 362.265625 657.820312 362.113281 657.820312 C 255.453125 656.523438 269.359375 512.394531 380.757812 512.394531 C 382.589844 512.394531 384.421875 512.394531 386.332031 512.550781 C 531.042969 518.660156 538.757812 722.359375 378.617188 740.996094 C 368.835938 742.140625 359.285156 742.675781 349.8125 742.675781 C 223.59375 742.675781 128.777344 644.148438 98.902344 534.699219 C 48.933594 351.390625 176.988281 150.515625 390.078125 150.515625 C 391.527344 150.515625 392.980469 150.515625 394.433594 150.515625 C 397.792969 148.378906 387.25 86.742188 395.042969 74.519531 C 398.480469 69.171875 404.671875 67.1875 412.082031 67.1875 M 412.082031 32.894531 C 384.957031 32.894531 371.585938 47.40625 366.085938 56.035156 C 357.070312 70.089844 356.6875 89.183594 358.675781 117.519531 C 264.011719 125.617188 181.570312 170.375 124.039062 245.53125 C 59.632812 329.851562 37.78125 441.210938 65.589844 543.558594 C 96.230469 655.910156 198.152344 776.894531 349.660156 776.894531 C 360.507812 776.894531 371.511719 776.28125 382.4375 774.984375 C 488.027344 762.6875 533.410156 684.171875 530.890625 616.421875 C 530.660156 611.152344 530.203125 605.808594 529.4375 600.460938 C 532.875 601.070312 535.398438 601.148438 536.3125 601.148438 C 537.996094 601.148438 539.753906 601.070312 541.507812 600.84375 C 550.601562 599.847656 558.777344 596.488281 565.5 591.066406 C 567.714844 591.449219 570.007812 591.601562 572.453125 591.601562 C 583.683594 591.601562 599.5 586.941406 610.960938 564.640625 C 625.476562 536.53125 613.941406 501.320312 596.980469 478.484375 C 603.015625 478.101562 609.125 477.566406 615.542969 476.957031 C 651.761719 473.289062 681.40625 465.5 703.484375 453.8125 C 708.910156 450.910156 713.417969 446.710938 716.550781 441.746094 C 727.019531 439.300781 736.1875 434.03125 742.984375 426.164062 C 760.023438 406.765625 756.664062 380.796875 754.675781 365.292969 C 754.523438 363.839844 754.292969 362.542969 754.140625 361.242188 C 746.804688 295.789062 713.265625 230.101562 657.183594 171.367188 C 607.75 119.582031 543.800781 76.660156 477.253906 50.460938 C 475.957031 49.925781 474.503906 49.390625 472.898438 48.703125 C 453.1875 40.761719 432.253906 32.96875 412.15625 32.96875 Z M 412.082031 32.894531 " fill-opacity="1" fill-rule="nonzero"/></g></svg>